<mxfile host="app.diagrams.net" agent="Mozilla/5.0 (Windows NT 10.0; Win64; x64) AppleWebKit/537.36 (KHTML, like Gecko) Chrome/131.0.0.0 Safari/537.36" version="26.0.3">
  <diagram name="Page-1" id="ojUTea9J0GlCkQ0s-NyS">
    <mxGraphModel dx="1900" dy="522" grid="1" gridSize="10" guides="1" tooltips="1" connect="1" arrows="1" fold="1" page="1" pageScale="1" pageWidth="850" pageHeight="1100" math="0" shadow="0">
      <root>
        <mxCell id="0" />
        <mxCell id="1" parent="0" />
        <mxCell id="vP9EPb2uaOXw7STHqdld-1" value="Frontend App" style="rounded=0;whiteSpace=wrap;html=1;" vertex="1" parent="1">
          <mxGeometry x="120" y="160" width="120" height="60" as="geometry" />
        </mxCell>
        <mxCell id="vP9EPb2uaOXw7STHqdld-3" value="Backend Server" style="rounded=0;whiteSpace=wrap;html=1;" vertex="1" parent="1">
          <mxGeometry x="300" y="160" width="120" height="60" as="geometry" />
        </mxCell>
        <mxCell id="vP9EPb2uaOXw7STHqdld-4" value="" style="endArrow=classic;html=1;rounded=0;" edge="1" parent="1" source="vP9EPb2uaOXw7STHqdld-3">
          <mxGeometry width="50" height="50" relative="1" as="geometry">
            <mxPoint x="400" y="380" as="sourcePoint" />
            <mxPoint x="360" y="130" as="targetPoint" />
          </mxGeometry>
        </mxCell>
        <mxCell id="vP9EPb2uaOXw7STHqdld-9" value="External API" style="rounded=0;whiteSpace=wrap;html=1;" vertex="1" parent="1">
          <mxGeometry x="300" y="330" width="120" height="60" as="geometry" />
        </mxCell>
        <mxCell id="vP9EPb2uaOXw7STHqdld-11" value="" style="endArrow=classic;startArrow=classic;html=1;rounded=0;entryX=0.5;entryY=1;entryDx=0;entryDy=0;exitX=0.5;exitY=0;exitDx=0;exitDy=0;" edge="1" parent="1" source="vP9EPb2uaOXw7STHqdld-9" target="vP9EPb2uaOXw7STHqdld-3">
          <mxGeometry width="50" height="50" relative="1" as="geometry">
            <mxPoint x="400" y="380" as="sourcePoint" />
            <mxPoint x="450" y="330" as="targetPoint" />
          </mxGeometry>
        </mxCell>
        <mxCell id="vP9EPb2uaOXw7STHqdld-12" value="Call for Config and Compute" style="text;html=1;align=center;verticalAlign=middle;whiteSpace=wrap;rounded=0;" vertex="1" parent="1">
          <mxGeometry x="380" y="270" width="160" height="30" as="geometry" />
        </mxCell>
        <mxCell id="vP9EPb2uaOXw7STHqdld-14" value="Response with Config and Compute" style="text;html=1;align=center;verticalAlign=middle;whiteSpace=wrap;rounded=0;" vertex="1" parent="1">
          <mxGeometry x="220" y="270" width="120" height="30" as="geometry" />
        </mxCell>
        <mxCell id="vP9EPb2uaOXw7STHqdld-16" value="Base Architecture" style="text;html=1;whiteSpace=wrap;overflow=hidden;rounded=0;fontSize=22;" vertex="1" parent="1">
          <mxGeometry x="-80" y="20" width="180" height="50" as="geometry" />
        </mxCell>
        <mxCell id="vP9EPb2uaOXw7STHqdld-23" value="" style="endArrow=classic;startArrow=classic;html=1;rounded=0;exitX=1;exitY=0.5;exitDx=0;exitDy=0;entryX=0;entryY=0.5;entryDx=0;entryDy=0;" edge="1" parent="1" source="vP9EPb2uaOXw7STHqdld-1" target="vP9EPb2uaOXw7STHqdld-3">
          <mxGeometry width="50" height="50" relative="1" as="geometry">
            <mxPoint x="400" y="280" as="sourcePoint" />
            <mxPoint x="450" y="230" as="targetPoint" />
          </mxGeometry>
        </mxCell>
        <mxCell id="vP9EPb2uaOXw7STHqdld-25" value="Content Search" style="ellipse;shape=cloud;whiteSpace=wrap;html=1;rounded=0;" vertex="1" parent="1">
          <mxGeometry x="500" y="150" width="170" height="80" as="geometry" />
        </mxCell>
        <mxCell id="vP9EPb2uaOXw7STHqdld-27" value="Database" style="ellipse;shape=cloud;whiteSpace=wrap;html=1;" vertex="1" parent="1">
          <mxGeometry x="300" y="50" width="120" height="80" as="geometry" />
        </mxCell>
        <mxCell id="vP9EPb2uaOXw7STHqdld-28" value="Backend to DB interaction" style="text;html=1;whiteSpace=wrap;overflow=hidden;rounded=0;fontSize=22;" vertex="1" parent="1">
          <mxGeometry x="-50" y="650" width="280" height="60" as="geometry" />
        </mxCell>
        <mxCell id="vP9EPb2uaOXw7STHqdld-31" value="Elastic Search&amp;nbsp;" style="ellipse;shape=cloud;whiteSpace=wrap;html=1;" vertex="1" parent="1">
          <mxGeometry x="320" y="730" width="120" height="80" as="geometry" />
        </mxCell>
        <mxCell id="vP9EPb2uaOXw7STHqdld-33" value="" style="endArrow=classic;html=1;rounded=0;exitX=0.875;exitY=0.5;exitDx=0;exitDy=0;exitPerimeter=0;entryX=0.1;entryY=0.515;entryDx=0;entryDy=0;entryPerimeter=0;" edge="1" parent="1" source="vP9EPb2uaOXw7STHqdld-31" target="vP9EPb2uaOXw7STHqdld-34">
          <mxGeometry width="50" height="50" relative="1" as="geometry">
            <mxPoint x="400" y="570" as="sourcePoint" />
            <mxPoint x="400" y="640" as="targetPoint" />
          </mxGeometry>
        </mxCell>
        <mxCell id="vP9EPb2uaOXw7STHqdld-34" value="LLamaIndex" style="ellipse;shape=cloud;whiteSpace=wrap;html=1;" vertex="1" parent="1">
          <mxGeometry x="460" y="730" width="120" height="80" as="geometry" />
        </mxCell>
        <mxCell id="vP9EPb2uaOXw7STHqdld-37" value="" style="endArrow=classic;html=1;rounded=0;exitX=1.02;exitY=0.119;exitDx=0;exitDy=0;entryX=0.08;entryY=0.495;entryDx=0;entryDy=0;entryPerimeter=0;exitPerimeter=0;" edge="1" parent="1" source="vP9EPb2uaOXw7STHqdld-53" target="vP9EPb2uaOXw7STHqdld-31">
          <mxGeometry width="50" height="50" relative="1" as="geometry">
            <mxPoint x="400" y="810" as="sourcePoint" />
            <mxPoint x="450" y="760" as="targetPoint" />
          </mxGeometry>
        </mxCell>
        <mxCell id="vP9EPb2uaOXw7STHqdld-41" value="Backend Server" style="swimlane;startSize=0;" vertex="1" parent="1">
          <mxGeometry y="750" width="290" height="490" as="geometry" />
        </mxCell>
        <mxCell id="vP9EPb2uaOXw7STHqdld-38" value="" style="rounded=1;absoluteArcSize=1;html=1;arcSize=10;" vertex="1" parent="vP9EPb2uaOXw7STHqdld-41">
          <mxGeometry y="40" width="220" height="320" as="geometry" />
        </mxCell>
        <mxCell id="vP9EPb2uaOXw7STHqdld-39" value="Routes" style="html=1;shape=mxgraph.er.anchor;whiteSpace=wrap;" vertex="1" parent="vP9EPb2uaOXw7STHqdld-38">
          <mxGeometry width="60.500000000000014" height="320.00000000000006" as="geometry" />
        </mxCell>
        <mxCell id="vP9EPb2uaOXw7STHqdld-40" value="Filehandler" style="rounded=1;absoluteArcSize=1;html=1;arcSize=10;whiteSpace=wrap;points=[];strokeColor=inherit;fillColor=inherit;" vertex="1" parent="vP9EPb2uaOXw7STHqdld-38">
          <mxGeometry x="60.5" y="16" width="159.5" height="64" as="geometry" />
        </mxCell>
        <mxCell id="vP9EPb2uaOXw7STHqdld-53" value="Webhook Manager" style="rounded=1;absoluteArcSize=1;html=1;arcSize=10;whiteSpace=wrap;points=[];strokeColor=inherit;fillColor=inherit;" vertex="1" parent="vP9EPb2uaOXw7STHqdld-38">
          <mxGeometry x="60.5" y="90" width="159.5" height="64" as="geometry" />
        </mxCell>
        <mxCell id="vP9EPb2uaOXw7STHqdld-66" value="" style="endArrow=classic;startArrow=classic;html=1;rounded=0;exitX=-0.013;exitY=0.512;exitDx=0;exitDy=0;exitPerimeter=0;entryX=0.153;entryY=0.001;entryDx=0;entryDy=0;entryPerimeter=0;" edge="1" parent="vP9EPb2uaOXw7STHqdld-38" source="vP9EPb2uaOXw7STHqdld-53" target="vP9EPb2uaOXw7STHqdld-38">
          <mxGeometry width="50" height="50" relative="1" as="geometry">
            <mxPoint x="400" y="160" as="sourcePoint" />
            <mxPoint x="30" y="60" as="targetPoint" />
            <Array as="points">
              <mxPoint x="34" y="123" />
            </Array>
          </mxGeometry>
        </mxCell>
        <mxCell id="vP9EPb2uaOXw7STHqdld-67" value="Generative Processor" style="rounded=1;absoluteArcSize=1;html=1;arcSize=10;whiteSpace=wrap;points=[];strokeColor=inherit;fillColor=inherit;" vertex="1" parent="vP9EPb2uaOXw7STHqdld-38">
          <mxGeometry x="60.5" y="190" width="159.5" height="64" as="geometry" />
        </mxCell>
        <mxCell id="vP9EPb2uaOXw7STHqdld-69" value="" style="endArrow=classic;startArrow=classic;html=1;rounded=0;exitX=0.428;exitY=0.006;exitDx=0;exitDy=0;exitPerimeter=0;entryX=0.433;entryY=0.969;entryDx=0;entryDy=0;entryPerimeter=0;" edge="1" parent="vP9EPb2uaOXw7STHqdld-38" source="vP9EPb2uaOXw7STHqdld-67" target="vP9EPb2uaOXw7STHqdld-53">
          <mxGeometry width="50" height="50" relative="1" as="geometry">
            <mxPoint x="400" y="170" as="sourcePoint" />
            <mxPoint x="450" y="120" as="targetPoint" />
          </mxGeometry>
        </mxCell>
        <mxCell id="vP9EPb2uaOXw7STHqdld-64" value="" style="endArrow=classic;startArrow=classic;html=1;rounded=0;exitX=0.273;exitY=0.188;exitDx=0;exitDy=0;exitPerimeter=0;entryX=0.145;entryY=0.006;entryDx=0;entryDy=0;entryPerimeter=0;" edge="1" parent="vP9EPb2uaOXw7STHqdld-41" source="vP9EPb2uaOXw7STHqdld-38" target="vP9EPb2uaOXw7STHqdld-38">
          <mxGeometry width="50" height="50" relative="1" as="geometry">
            <mxPoint x="400" y="210" as="sourcePoint" />
            <mxPoint x="450" y="160" as="targetPoint" />
            <Array as="points">
              <mxPoint x="32" y="100" />
            </Array>
          </mxGeometry>
        </mxCell>
        <mxCell id="vP9EPb2uaOXw7STHqdld-76" value="Rate Limiter" style="rounded=1;absoluteArcSize=1;html=1;arcSize=10;whiteSpace=wrap;points=[];strokeColor=inherit;fillColor=inherit;" vertex="1" parent="vP9EPb2uaOXw7STHqdld-41">
          <mxGeometry x="60.5" y="390" width="159.5" height="64" as="geometry" />
        </mxCell>
        <mxCell id="vP9EPb2uaOXw7STHqdld-77" value="" style="endArrow=classic;startArrow=classic;html=1;rounded=0;exitX=0.278;exitY=1.002;exitDx=0;exitDy=0;exitPerimeter=0;entryX=-0.023;entryY=0.631;entryDx=0;entryDy=0;entryPerimeter=0;" edge="1" parent="vP9EPb2uaOXw7STHqdld-41" source="vP9EPb2uaOXw7STHqdld-39" target="vP9EPb2uaOXw7STHqdld-76">
          <mxGeometry width="50" height="50" relative="1" as="geometry">
            <mxPoint x="50" y="370" as="sourcePoint" />
            <mxPoint y="420" as="targetPoint" />
            <Array as="points">
              <mxPoint x="17" y="430" />
            </Array>
          </mxGeometry>
        </mxCell>
        <mxCell id="vP9EPb2uaOXw7STHqdld-70" value="" style="shape=flexArrow;endArrow=classic;startArrow=classic;html=1;rounded=0;exitX=0.99;exitY=0.369;exitDx=0;exitDy=0;exitPerimeter=0;" edge="1" parent="1" source="vP9EPb2uaOXw7STHqdld-53">
          <mxGeometry width="100" height="100" relative="1" as="geometry">
            <mxPoint x="370" y="990" as="sourcePoint" />
            <mxPoint x="400" y="900" as="targetPoint" />
          </mxGeometry>
        </mxCell>
        <mxCell id="vP9EPb2uaOXw7STHqdld-74" value="API call" style="edgeLabel;html=1;align=center;verticalAlign=middle;resizable=0;points=[];" vertex="1" connectable="0" parent="vP9EPb2uaOXw7STHqdld-70">
          <mxGeometry x="-0.1155" y="6" relative="1" as="geometry">
            <mxPoint as="offset" />
          </mxGeometry>
        </mxCell>
        <mxCell id="vP9EPb2uaOXw7STHqdld-71" value="ASR-NMT-TTS" style="rounded=0;whiteSpace=wrap;html=1;" vertex="1" parent="1">
          <mxGeometry x="400" y="870" width="120" height="60" as="geometry" />
        </mxCell>
        <mxCell id="vP9EPb2uaOXw7STHqdld-75" value="" style="endArrow=classic;startArrow=classic;html=1;rounded=0;exitX=1;exitY=0.5;exitDx=0;exitDy=0;entryX=0.089;entryY=0.51;entryDx=0;entryDy=0;entryPerimeter=0;" edge="1" parent="1" source="vP9EPb2uaOXw7STHqdld-3" target="vP9EPb2uaOXw7STHqdld-25">
          <mxGeometry width="50" height="50" relative="1" as="geometry">
            <mxPoint x="610" y="420" as="sourcePoint" />
            <mxPoint x="660" y="370" as="targetPoint" />
          </mxGeometry>
        </mxCell>
      </root>
    </mxGraphModel>
  </diagram>
</mxfile>
